<svg id="Warstwa_1" data-name="Warstwa 1" xmlns="http://www.w3.org/2000/svg" viewBox="0 0 499.93 363.6"><defs><style>.cls-1{fill:#5c5c5c;}.cls-2{fill:#f26c4f;}</style></defs><title>jajko</title><g id="_1066-fried-egg-toolbar_2x.png" data-name="1066-fried-egg-toolbar@2x.png"><path class="cls-1" d="M159.13,90.9a68.2,68.2,0,1,0,68.2,68.2A68.22,68.22,0,0,0,159.13,90.9ZM169.73,0c-3.7,0-7.2.1-10.7.3C93,4,49.13,32.5,24.53,77.2,5.63,111.5-2,155.4.43,205c2.2,44.5,11.7,116.9,50.6,144.6,13.9,9.9,27.6,14,40.9,14,26.6,0,51.6-17.7,73.6-36.1,25.1-21,55.3-32.1,86.1-32.1a130.39,130.39,0,0,1,41.6,6.8c34.7,11.6,71.3,37.7,109.2,37.7a81.77,81.77,0,0,0,31.4-6c48.9-19.5,66.1-70.8,66.1-120.4C500,91.1,282.63,0,169.73,0Zm255.8,312.9a61.14,61.14,0,0,1-23,4.4c-20.1,0-41.3-9.9-63.8-20.5-12.4-5.8-25.2-11.8-38.2-16.1a154,154,0,0,0-48.8-8c-36.7,0-71.5,12.9-100.7,37.4-18.2,15.2-39.5,30.8-59,30.8-9.4,0-18.5-3.2-27.7-9.8-23-16.3-38-62.7-41.2-127.2-2.3-47,4.8-86,21.3-115.8C66.53,48,105.53,26,160.23,23c3.1-.2,6.2-.3,9.5-.3,103.9,0,307.6,86.4,307.6,190.9C477.33,243,470.53,295,425.53,312.9Z"/></g><circle class="cls-2" cx="159.07" cy="158.32" r="69.33"/></svg>