<svg xmlns="http://www.w3.org/2000/svg" viewBox="0 0 423 499.9"><defs><style>.cls-1{fill:none;}.cls-2{fill:#0ab6a2;}.cls-3{fill:#f26c4f;}</style></defs><title>Notatnik1_1</title><g id="Warstwa_2" data-name="Warstwa 2"><g id="Warstwa_1-2" data-name="Warstwa 1"><path class="cls-1" d="M313.6,31.2H63.7c0,.3-.1.6-.1.9V94.3H78.8a15.3,15.3,0,0,1,0,30.6H63.6v62.9H80.2a15.3,15.3,0,0,1,0,30.6H63.6v63.2H79.9a15.3,15.3,0,1,1,0,30.6H63.6V375H79.9a15.3,15.3,0,0,1,0,30.6H63.6v63.1H313.7V31.2Z"/><path class="cls-1" d="M376.1,31.2H344.9V468.7h31.2a15.62,15.62,0,0,0,15.6-15.6V46.9A15.64,15.64,0,0,0,376.1,31.2Z"/><path class="cls-2" d="M376.1,0H64.6C42.1,0,32.4,16.6,32.4,32.2V94.4H15.3a15.3,15.3,0,0,0,0,30.6H32.4v62.9H16.8a15.3,15.3,0,0,0,0,30.6H32.4v63.2h-16a15.3,15.3,0,1,0,0,30.6H32.3V375H16.4a15.3,15.3,0,0,0,0,30.6H32.3v63.1c0,25.9,20.3,31.2,31.5,31.2H376.1A46.9,46.9,0,0,0,423,453V46.9A46.9,46.9,0,0,0,376.1,0ZM63.6,468.8V405.7H79.9a15.3,15.3,0,1,0,0-30.6H63.6V312.4H79.9a15.3,15.3,0,1,0,0-30.6H63.6V218.6H80.2a15.3,15.3,0,1,0,0-30.6H63.6V125H78.8a15.3,15.3,0,0,0,0-30.6H63.6V32.2a2.22,2.22,0,0,1,.1-.9H313.6V468.8H63.6Zm328.2-15.7a15.62,15.62,0,0,1-15.6,15.6H345V31.2h31.2a15.62,15.62,0,0,1,15.6,15.6Z"/><rect class="cls-3" x="311.87" y="31.2" width="34.13" height="437.5"/></g></g></svg>