<svg id="Warstwa_1" data-name="Warstwa 1" xmlns="http://www.w3.org/2000/svg" viewBox="0 0 500.1 500"><defs><style>.cls-1{fill:#0ab6a2;}.cls-2{fill:#f26c4f;}</style></defs><title>Kalendarz1</title><path class="cls-1" d="M458.3,46.9H390.6V15.6a15.6,15.6,0,0,0-31.2,0V46.8H265.6V15.6a15.6,15.6,0,0,0-31.2,0V46.8H140.6V15.6a15.6,15.6,0,0,0-31.2,0V46.8H41.7A41.8,41.8,0,0,0,0,88.5V458.3A41.74,41.74,0,0,0,41.7,500H458.4a41.74,41.74,0,0,0,41.7-41.7V88.5A41.74,41.74,0,0,0,458.3,46.9Zm10.5,411.4a10.46,10.46,0,0,1-10.4,10.4H41.7a10.46,10.46,0,0,1-10.4-10.4V88.5A10.46,10.46,0,0,1,41.7,78.1h67.7v31.2a15.6,15.6,0,0,0,31.2,0V78.1h93.8v31.2a15.6,15.6,0,0,0,31.2,0V78.1h93.8v31.2a15.6,15.6,0,0,0,31.2,0V78.1h67.7a10.46,10.46,0,0,1,10.4,10.4V458.3Z"/><rect class="cls-2" x="109.4" y="187.5" width="62.5" height="46.9"/><rect class="cls-2" x="109.4" y="265.6" width="62.5" height="46.9"/><rect class="cls-2" x="109.4" y="343.8" width="62.5" height="46.9"/><rect class="cls-2" x="218.8" y="343.8" width="62.5" height="46.9"/><rect class="cls-2" x="218.8" y="265.6" width="62.5" height="46.9"/><rect class="cls-2" x="218.8" y="187.5" width="62.5" height="46.9"/><rect class="cls-2" x="328.1" y="343.8" width="62.5" height="46.9"/><rect class="cls-2" x="328.1" y="265.6" width="62.5" height="46.9"/><rect class="cls-2" x="328.1" y="187.5" width="62.5" height="46.9"/></svg>